M48
METRIC,LZ,000.000
;FILE_FORMAT=3:3
;TYPE=PLATED
;Layer: PTH_Through
;EasyEDA v6.5.51, 2025-09-24 14:11:52
;3cc6f75c99854130816e6aad485a8a88,01ea995e815642bba8bbaaaafbe3517a,10
;Gerber Generator version 0.2
;Holesize 1 = 0.305 mm
T01C0.305
;Holesize 2 = 0.800 mm
T02C0.800
;Holesize 3 = 1.000 mm
T03C1.000
;Holesize 4 = 1.101 mm
T04C1.101
%
G05
G90
T01
X047545Y050884
X037849Y033602
X033241Y042661
X053212Y033622
X045760Y064800
X048069Y057431
X040745Y051562
X040816Y057432
T02
X009856Y067904G85X009856Y067304
X016306Y067904G85X016306Y067304
T03
X024638Y029337
X027178Y026797
X027178Y031877
T04
X009906Y058801
X022352Y065786
X059055Y065786
X063627Y065786
X010033Y024892
X067183Y035433
X067183Y030607
X067310Y025781
M30
