G04 Layer: TopSolderMaskLayer*
G04 EasyEDA v6.5.51, 2025-09-24 14:11:52*
G04 3cc6f75c99854130816e6aad485a8a88,01ea995e815642bba8bbaaaafbe3517a,10*
G04 Gerber Generator version 0.2*
G04 Scale: 100 percent, Rotated: No, Reflected: No *
G04 Dimensions in millimeters *
G04 leading zeros omitted , absolute positions ,4 integer and 5 decimal *
%FSLAX45Y45*%
%MOMM*%

%AMMACRO1*4,1,8,-2.2711,-1.2008,-2.3008,-1.171,-2.3008,1.1711,-2.2711,1.2008,2.271,1.2008,2.3008,1.1711,2.3008,-1.171,2.271,-1.2008,-2.2711,-1.2008,0*%
%AMMACRO2*4,1,8,-1.4211,-0.6008,-1.4508,-0.571,-1.4508,0.5711,-1.4211,0.6008,1.421,0.6008,1.4508,0.5711,1.4508,-0.571,1.421,-0.6008,-1.4211,-0.6008,0*%
%AMMACRO3*4,1,8,-1.7711,-0.6508,-1.8008,-0.621,-1.8008,0.6211,-1.7711,0.6508,1.771,0.6508,1.8008,0.6211,1.8008,-0.621,1.771,-0.6508,-1.7711,-0.6508,0*%
%AMMACRO4*4,1,8,-1.8261,-0.6808,-1.8558,-0.651,-1.8558,0.6511,-1.8261,0.6808,1.826,0.6808,1.8558,0.6511,1.8558,-0.651,1.826,-0.6808,-1.8261,-0.6808,0*%
%AMMACRO5*4,1,8,-0.4961,-0.6258,-0.5258,-0.596,-0.5258,0.5961,-0.4961,0.6258,0.496,0.6258,0.5258,0.5961,0.5258,-0.596,0.496,-0.6258,-0.4961,-0.6258,0*%
%AMMACRO6*4,1,8,-0.4211,-0.4508,-0.4508,-0.421,-0.4508,0.4211,-0.4211,0.4508,0.421,0.4508,0.4508,0.4211,0.4508,-0.421,0.421,-0.4508,-0.4211,-0.4508,0*%
%AMMACRO7*4,1,8,-0.8711,-0.9008,-0.9008,-0.871,-0.9008,0.8711,-0.8711,0.9008,0.871,0.9008,0.9008,0.8711,0.9008,-0.871,0.871,-0.9008,-0.8711,-0.9008,0*%
%AMMACRO8*4,1,8,-0.5873,-0.7393,-0.6171,-0.7095,-0.6171,0.7095,-0.5873,0.7393,0.5873,0.7393,0.6171,0.7095,0.6171,-0.7095,0.5873,-0.7393,-0.5873,-0.7393,0*%
%AMMACRO9*4,1,8,-0.3039,-0.3208,-0.3336,-0.291,-0.3336,0.2911,-0.3039,0.3208,0.3038,0.3208,0.3336,0.2911,0.3336,-0.291,0.3038,-0.3208,-0.3039,-0.3208,0*%
%AMMACRO10*4,1,8,-0.6248,-0.9013,-0.6546,-0.8715,-0.6546,0.8716,-0.6248,0.9013,0.6248,0.9013,0.6546,0.8716,0.6546,-0.8715,0.6248,-0.9013,-0.6248,-0.9013,0*%
%AMMACRO11*4,1,8,-0.2661,-0.6293,-0.2958,-0.5995,-0.2958,0.5996,-0.2661,0.6293,0.266,0.6293,0.2958,0.5996,0.2958,-0.5995,0.266,-0.6293,-0.2661,-0.6293,0*%
%AMMACRO12*4,1,8,-0.2661,-0.6383,-0.2958,-0.6085,-0.2958,0.6086,-0.2661,0.6383,0.266,0.6383,0.2958,0.6086,0.2958,-0.6085,0.266,-0.6383,-0.2661,-0.6383,0*%
%AMMACRO13*4,1,8,-0.9211,-0.8008,-0.9508,-0.771,-0.9508,0.7711,-0.9211,0.8008,0.921,0.8008,0.9508,0.7711,0.9508,-0.771,0.921,-0.8008,-0.9211,-0.8008,0*%
%AMMACRO14*4,1,8,-1.2707,-0.5512,-1.3005,-0.5214,-1.3005,0.5214,-1.2707,0.5512,1.2707,0.5512,1.3005,0.5214,1.3005,-0.5214,1.2707,-0.5512,-1.2707,-0.5512,0*%
%AMMACRO15*4,1,8,-1.2707,-0.5499,-1.3005,-0.5201,-1.3005,0.5202,-1.2707,0.5499,1.2707,0.5499,1.3005,0.5202,1.3005,-0.5201,1.2707,-0.5499,-1.2707,-0.5499,0*%
%AMMACRO16*4,1,8,-2.0213,-1.3005,-2.0511,-1.2707,-2.0511,1.2707,-2.0213,1.3005,2.0213,1.3005,2.0511,1.2707,2.0511,-1.2707,2.0213,-1.3005,-2.0213,-1.3005,0*%
%AMMACRO17*4,1,8,-2.0213,-1.3017,-2.0511,-1.272,-2.0511,1.272,-2.0213,1.3017,2.0213,1.3017,2.0511,1.272,2.0511,-1.272,2.0213,-1.3017,-2.0213,-1.3017,0*%
%AMMACRO18*4,1,8,-0.2211,-0.7258,-0.2508,-0.696,-0.2508,0.6961,-0.2211,0.7258,0.221,0.7258,0.2508,0.6961,0.2508,-0.696,0.221,-0.7258,-0.2211,-0.7258,0*%
%AMMACRO19*4,1,8,-1.0711,-0.8508,-1.1008,-0.821,-1.1008,0.8211,-1.0711,0.8508,1.071,0.8508,1.1008,0.8211,1.1008,-0.821,1.071,-0.8508,-1.0711,-0.8508,0*%
%ADD10MACRO1*%
%ADD11MACRO2*%
%ADD12MACRO3*%
%ADD13MACRO4*%
%ADD14MACRO5*%
%ADD15MACRO6*%
%ADD16C,0.0111*%
%ADD17MACRO7*%
%ADD18MACRO8*%
%ADD19MACRO9*%
%ADD20C,1.7016*%
%ADD21MACRO10*%
%ADD22MACRO11*%
%ADD23MACRO12*%
%ADD24O,0.465607X1.763598*%
%ADD25MACRO13*%
%ADD26MACRO14*%
%ADD27MACRO15*%
%ADD28MACRO16*%
%ADD29MACRO17*%
%ADD30MACRO18*%
%ADD31MACRO19*%
%ADD32O,1.501597X2.201596*%

%LPD*%
D10*
G01*
X7578294Y4991101D03*
G01*
X5858308Y4991101D03*
D11*
G01*
X1396047Y2603501D03*
G01*
X1728152Y2603501D03*
G01*
X3999547Y3327401D03*
G01*
X4331652Y3327401D03*
G01*
X3999547Y2641601D03*
G01*
X4331652Y2641601D03*
D12*
G01*
X2260302Y5943600D03*
G01*
X2794297Y5943600D03*
G01*
X2260302Y5130800D03*
G01*
X2794297Y5130800D03*
D13*
G01*
X4013893Y4229092D03*
G01*
X4672891Y4229092D03*
D14*
G01*
X5566740Y3276600D03*
G01*
X5228259Y3276600D03*
G01*
X5579440Y3657600D03*
G01*
X5240959Y3657600D03*
D15*
G01*
X3610543Y6578610D03*
G01*
X3450643Y6578594D03*
G01*
X4575743Y6565910D03*
G01*
X4415843Y6565894D03*
D17*
G01*
X990600Y5880100D03*
G01*
X2235200Y6578600D03*
G01*
X5905500Y6578600D03*
G01*
X6362700Y6578600D03*
G01*
X1003300Y2489200D03*
G01*
X6718300Y3543300D03*
G01*
X6718300Y3060700D03*
G01*
X6731000Y2578100D03*
D18*
G01*
X1528973Y3949703D03*
G01*
X1722226Y3949703D03*
D19*
G01*
X4107282Y6578600D03*
G01*
X4020717Y6578600D03*
G01*
X5059782Y6565900D03*
G01*
X4973217Y6565900D03*
G01*
X3675482Y5473700D03*
G01*
X3588917Y5473700D03*
G01*
X4500982Y5143500D03*
G01*
X4414417Y5143500D03*
G01*
X3954882Y5156200D03*
G01*
X3868317Y5156200D03*
G01*
X5440782Y2768600D03*
G01*
X5354217Y2768600D03*
D20*
G01*
X2463800Y2933700D03*
G01*
X2717800Y2679700D03*
G01*
X2717800Y3187700D03*
D21*
G01*
X1341676Y4546600D03*
G01*
X1045923Y4546600D03*
D22*
G01*
X2521204Y3986733D03*
G01*
X2616200Y3986733D03*
G01*
X2711195Y3986733D03*
D23*
G01*
X2711195Y4217466D03*
G01*
X2521204Y4217466D03*
D24*
G01*
X4182389Y5743194D03*
G01*
X4247413Y5743194D03*
G01*
X4312411Y5743194D03*
G01*
X4377410Y5743194D03*
G01*
X4182389Y6169405D03*
G01*
X4247413Y6169405D03*
G01*
X4312411Y6169405D03*
G01*
X4377410Y6169405D03*
D25*
G01*
X4279900Y5956298D03*
D26*
G01*
X7244143Y3543236D03*
G01*
X7244143Y3293300D03*
D27*
G01*
X7244143Y3093275D03*
D26*
G01*
X7244143Y2843212D03*
D28*
G01*
X7437056Y2462720D03*
D29*
G01*
X7437056Y3912679D03*
D30*
G01*
X1438102Y6472943D03*
G01*
X1373101Y6472943D03*
G01*
X1308102Y6472943D03*
G01*
X1243101Y6472943D03*
G01*
X1178102Y6472943D03*
D31*
G01*
X958100Y6505442D03*
G01*
X1658099Y6505442D03*
D32*
G01*
X985596Y6760463D03*
G01*
X1630603Y6760463D03*
M02*
